<svg version="1.1" xmlns="http://www.w3.org/2000/svg" xmlns:xlink="http://www.w3.org/1999/xlink" width="1007" height="676"><defs><clipPath id="nJRUoutWvHUR"><path fill="none" stroke="none" d=" M 0 0 L 1007 0 L 1007 676 L 0 676 L 0 0 Z"/></clipPath></defs><g transform="scale(1,1)" clip-path="url(#nJRUoutWvHUR)"><g><rect fill="rgb(255,255,255)" stroke="none" x="0" y="0" width="1007" height="676" fill-opacity="0.6"/><path fill="rgb(153,51,0)" stroke="none" paint-order="stroke fill markers" fill-rule="evenodd" d=" M 682.3839902237298 574.8106002672528 L 682.5627976569999 265.0637669184333 L 741.1840928680301 263.7387533124834 L 741.1840928680301 574.8106002672528 Z" fill-opacity="0.09803921568627451"/><path fill="rgb(153,51,0)" stroke="none" paint-order="stroke fill markers" fill-rule="evenodd" d=" M 447.18357964652915 574.8106002672528 L 447.91547679323946 539.9998600460442 L 505.7587698433758 538.7672410225629 L 505.98368229082934 574.8106002672528 Z" fill-opacity="0.09803921568627451"/><path fill="rgb(153,51,0)" stroke="none" paint-order="stroke fill markers" fill-rule="evenodd" d=" M 388.383477002229 574.8106002672528 L 388.6798236554342 566.1283785451111 L 447.37444869783747 565.732421740083 L 447.18357964652915 574.8106002672528 Z" fill-opacity="0.09803921568627451"/><path fill="none" stroke="rgb(255,0,0)" paint-order="fill stroke markers" d=" M 329.58337318192673 574.8106002672528 L 330.421875 574.8088523740411 M 330.421875 574.8088523740411 L 334.35546875 574.7539859665166 L 338.2890625 574.6221857733918 L 342.22265625 574.4134517946668 L 346.15625 574.1277840303414 M 346.15625 574.1277840303414 L 350.08984375 573.7651824804158 L 354.0234375 573.3256471448899 L 357.95703125 572.8091780237637 L 361.890625 572.2157751170372 L 365.82421875 571.5454384247105 L 369.7578125 570.7981679467835 L 373.69140625 569.9739636832561 L 377.625 569.0728256341285 M 377.625 569.0728256341285 L 381.55859375 568.0947537994007 L 385.4921875 567.0397481790725 L 389.42578125 565.9078087731441 L 393.359375 564.6989355816154 L 397.29296875 563.4131286044865 L 401.2265625 562.0503878417571 L 405.16015625 560.6107132934276 L 409.09375 559.0941049594978 L 413.02734375 557.5005628399676 L 416.9609375 555.8300869348373 L 420.89453125 554.0826772441067 L 424.828125 552.2583337677756 L 428.76171875 550.3570565058444 L 432.6953125 548.378845458313 L 436.62890625 546.3237006251811 L 440.5625 544.191622006449 L 444.49609375 541.9826096021168 L 448.4296875 539.6966634121841 L 452.36328125 537.3337834366513 L 456.29687500000006 534.8939696755181 L 460.23046875 532.3772221287846 L 464.1640625 529.7835407964509 L 468.09765625 527.1129256785168 L 472.03125 524.3653767749826 L 475.96484375 521.540894085848 L 479.8984375 518.6394776111131 L 483.83203125 515.661127350778 L 487.765625 512.6058433048426 L 491.69921875 509.4736254733068 L 495.6328125 506.2644738561708 L 499.56640625 502.97838845343455 L 503.5 499.615369265098 M 503.5 499.615369265098 L 507.43359375 496.1754162911612 L 511.3671875 492.6585295316241 L 515.30078125 489.06470898648666 L 519.234375 485.39395465574904 L 523.16796875 481.6462665394111 L 527.1015625 477.8216446374729 L 531.03515625 473.9200889499344 L 534.96875 469.94159947679555 L 538.90234375 465.8861762180565 L 542.8359375 461.7538191737172 L 546.76953125 457.54452834377753 L 550.703125 453.25830372823765 L 554.63671875 448.89514532709745 L 558.5703125 444.455053140357 L 562.50390625 439.9380271680163 L 566.4375 435.34406741007524 L 570.37109375 430.67317386653394 L 574.3046875 425.92534653739233 L 578.23828125 421.10058542265045 L 582.171875 416.1988905223084 L 586.10546875 411.2202618363659 L 590.0390625 406.16469936482326 L 593.97265625 401.03220310768023 L 597.90625 395.82277306493694 L 601.83984375 390.53640923659344 L 605.7734375 385.17311162264957 L 609.70703125 379.73288022310555 L 613.640625 374.2157150379611 L 617.57421875 368.62161606721645 L 621.5078125000001 362.9505833108715 L 625.44140625 357.2026167689263 L 629.375 351.3777164413808 L 633.30859375 345.475882328235 L 637.2421875 339.497114429489 L 641.1757812500001 333.4414127451426 L 645.109375 327.308777275196 L 649.04296875 321.09920801964915 L 652.9765625 314.8127049785019 L 656.91015625 308.44926815175444 L 660.8437500000001 302.00889753940663 L 664.77734375 295.49159314145874 L 668.7109375 288.8973549579104 L 672.64453125 282.2261829887618 L 676.578125 275.47807723401297 L 680.5117187500001 268.65303769366375 L 684.4453125 261.7510643677144 L 688.37890625 254.77215725616475 L 692.3125 247.71631635901474 L 696.24609375 240.58354167626447 L 700.1796875000001 233.3738332079139 L 704.11328125 226.0871909539631 L 708.046875 218.72361491441205 L 711.98046875 211.2831050892607 L 715.9140625 203.76566147850895 L 719.8476562500001 196.171284082157 L 723.78125 188.49997290020485 L 727.71484375 180.7517279326524 L 731.6484375 172.92654917949955 L 735.58203125 165.02443664074644 L 739.5156250000001 157.04539031639308 L 743.44921875 148.98941020643952 L 747.3828125000001 140.85649631088557 L 751.31640625 132.6466486297315 L 755.2500000000001 124.35986716297697 M 755.2500000000001 124.35986716297697 L 759.1835937500001 115.99615191062225 L 763.1171875 107.55550287266726 M 763.1171875 107.55550287266726 L 764.7041351017522 104.12847375199141" stroke-opacity="0.6980392156862745" stroke-linecap="round" stroke-linejoin="round" stroke-miterlimit="10" stroke-width="2.5"/><path fill="none" stroke="rgb(153,51,0)" paint-order="fill stroke markers" d=" M 682.3839902237298 574.8106002672528 L 682.5627976569999 265.0637669184333" stroke-opacity="0.6980392156862745" stroke-linecap="round" stroke-linejoin="round" stroke-miterlimit="10" stroke-width="2.5"/><path fill="none" stroke="rgb(153,51,0)" paint-order="fill stroke markers" d=" M 682.5627976569999 265.0637669184333 L 741.1840928680301 263.7387533124834" stroke-opacity="0.6980392156862745" stroke-linecap="round" stroke-linejoin="round" stroke-miterlimit="10" stroke-width="2.5"/><path fill="none" stroke="rgb(153,51,0)" paint-order="fill stroke markers" d=" M 741.1840928680301 263.7387533124834 L 741.1840928680301 574.8106002672528" stroke-opacity="0.6980392156862745" stroke-linecap="round" stroke-linejoin="round" stroke-miterlimit="10" stroke-width="2.5"/><path fill="none" stroke="rgb(153,51,0)" paint-order="fill stroke markers" d=" M 447.18357964652915 574.8106002672528 L 447.91547679323946 539.9998600460442" stroke-opacity="0.6980392156862745" stroke-linecap="round" stroke-linejoin="round" stroke-miterlimit="10" stroke-width="2.5"/><path fill="none" stroke="rgb(153,51,0)" paint-order="fill stroke markers" d=" M 447.91547679323946 539.9998600460442 L 505.7587698433758 538.7672410225629" stroke-opacity="0.6980392156862745" stroke-linecap="round" stroke-linejoin="round" stroke-miterlimit="10" stroke-width="2.5"/><path fill="none" stroke="rgb(153,51,0)" paint-order="fill stroke markers" d=" M 505.7587698433758 538.7672410225629 L 505.98368229082934 574.8106002672528" stroke-opacity="0.6980392156862745" stroke-linecap="round" stroke-linejoin="round" stroke-miterlimit="10" stroke-width="2.5"/><path fill="none" stroke="rgb(153,51,0)" paint-order="fill stroke markers" d=" M 388.383477002229 574.8106002672528 L 388.6798236554342 566.1283785451111" stroke-opacity="0.6980392156862745" stroke-linecap="round" stroke-linejoin="round" stroke-miterlimit="10" stroke-width="2.5"/><path fill="none" stroke="rgb(153,51,0)" paint-order="fill stroke markers" d=" M 388.6798236554342 566.1283785451111 L 447.37444869783747 565.732421740083" stroke-opacity="0.6980392156862745" stroke-linecap="round" stroke-linejoin="round" stroke-miterlimit="10" stroke-width="2.5"/><path fill="none" stroke="rgb(153,51,0)" paint-order="fill stroke markers" d=" M 329.5833743579288 574.8106002672528 L 388.383477002229 574.8106002672528" stroke-opacity="0.6980392156862745" stroke-linecap="round" stroke-linejoin="round" stroke-miterlimit="10" stroke-width="3.5"/><path fill="none" stroke="rgb(0,0,0)" paint-order="fill stroke markers" d=" M 741.18409286803 263.7387533124835 L 741.1840928680301 153.63777202436285" stroke-opacity="0.6980392156862745" stroke-linejoin="round" stroke-miterlimit="10" stroke-width="2.5" stroke-dasharray="10.5,8"/><path fill="none" stroke="rgb(0,0,0)" paint-order="fill stroke markers" d=" M 270.7832717136286 574.8106002672528 L 841.7842981566305 574.8106002672528" stroke-opacity="0.6980392156862745" stroke-linecap="round" stroke-linejoin="round" stroke-miterlimit="10" stroke-width="2.5"/><path fill="rgb(0,0,0)" stroke="none" paint-order="stroke fill markers" fill-rule="evenodd" d=" M 858.7842981566305 574.8106002672528 L 841.7842981566305 579.0606002672528 L 841.7842981566305 570.5606002672528 Z" fill-opacity="0.6980392156862745"/><path fill="none" stroke="rgb(0,0,0)" paint-order="fill stroke markers" d=" M 329.5833743579288 643.5735110007859 L 329.5833743579288 91.99999999999994" stroke-opacity="0.6980392156862745" stroke-linecap="round" stroke-linejoin="round" stroke-miterlimit="10" stroke-width="2.5"/><path fill="rgb(0,0,0)" stroke="none" paint-order="stroke fill markers" fill-rule="evenodd" d=" M 329.5833743579288 74.99999999999994 L 333.8333743579288 91.99999999999994 L 325.3333743579288 91.99999999999994 Z" fill-opacity="0.6980392156862745"/><g transform="scale(19,19)"><g transform="translate(38.78947368421053,31.433473684210526)"><path fill="rgb(0,0,0)" stroke="none" paint-order="stroke fill markers" d=" M 0.354 -0.623 L 0.354 -0.047 L 0.494 -0.047 L 0.494 0 Q 0.45 -0.003 0.295 -0.003 Q 0.14 -0.003 0.096 0 L 0.096 -0.047 L 0.23500000000000001 -0.047 L 0.23500000000000001 -0.5640000000000001 Q 0.17300000000000001 -0.544 0.105 -0.544 L 0.085 -0.544 L 0.085 -0.591 L 0.105 -0.591 Q 0.229 -0.591 0.306 -0.648 Q 0.315 -0.655 0.328 -0.655 Q 0.34600000000000003 -0.655 0.35000000000000003 -0.6485 Q 0.354 -0.642 0.354 -0.623 Z"/></g></g><g transform="scale(19,19)"><g transform="translate(16.31578947368421,31.27557894736842)"><path fill="rgb(0,0,0)" stroke="none" paint-order="stroke fill markers" d=" M 0.5285 -0.369 Q 0.5285 -0.369 0.52875 -0.359 Q 0.529 -0.34900000000000003 0.529 -0.319 Q 0.529 -0.289 0.5285 -0.2685 Q 0.528 -0.248 0.523 -0.2105 Q 0.518 -0.17300000000000001 0.5095000000000001 -0.1465 Q 0.501 -0.12 0.483 -0.088 Q 0.465 -0.056 0.44 -0.036000000000000004 Q 0.41500000000000004 -0.016 0.3755 -0.0025 Q 0.336 0.011 0.28700000000000003 0.011 Q 0.23700000000000002 0.011 0.1975 -0.003 Q 0.158 -0.017 0.1335 -0.0365 Q 0.109 -0.056 0.091 -0.0885 Q 0.073 -0.121 0.0645 -0.147 Q 0.056 -0.17300000000000001 0.051000000000000004 -0.211 Q 0.046 -0.249 0.0455 -0.269 Q 0.045 -0.289 0.045 -0.319 Q 0.045 -0.34900000000000003 0.0455 -0.369 Q 0.046 -0.389 0.051000000000000004 -0.4275 Q 0.056 -0.466 0.0645 -0.493 Q 0.073 -0.52 0.091 -0.553 Q 0.109 -0.586 0.1335 -0.6065 Q 0.158 -0.627 0.1975 -0.641 Q 0.23700000000000002 -0.655 0.28700000000000003 -0.655 Q 0.337 -0.655 0.3765 -0.6405 Q 0.41600000000000004 -0.626 0.4405 -0.606 Q 0.465 -0.586 0.483 -0.5525 Q 0.501 -0.519 0.5095000000000001 -0.4925 Q 0.518 -0.466 0.523 -0.4275 Q 0.528 -0.389 0.5285 -0.369 M 0.28700000000000003 -0.025 Q 0.307 -0.025 0.326 -0.0315 Q 0.34500000000000003 -0.038 0.3665 -0.0635 Q 0.388 -0.089 0.394 -0.132 Q 0.401 -0.184 0.401 -0.331 Q 0.401 -0.519 0.384 -0.556 Q 0.371 -0.587 0.34400000000000003 -0.603 Q 0.317 -0.619 0.28700000000000003 -0.619 Q 0.269 -0.619 0.2505 -0.614 Q 0.232 -0.609 0.209 -0.5845 Q 0.186 -0.56 0.181 -0.52 Q 0.17300000000000001 -0.468 0.17300000000000001 -0.331 Q 0.17300000000000001 -0.17200000000000001 0.182 -0.12 Q 0.191 -0.07100000000000001 0.2225 -0.048 Q 0.254 -0.025 0.28700000000000003 -0.025 Z"/></g></g><g transform="scale(19,19)"><g transform="translate(20.131921937467368,31.486105263157892)"><path fill="rgb(0,0,0)" stroke="none" paint-order="stroke fill markers" d=" M 0.354 -0.623 L 0.354 -0.047 L 0.494 -0.047 L 0.494 0 Q 0.45 -0.003 0.295 -0.003 Q 0.14 -0.003 0.096 0 L 0.096 -0.047 L 0.23500000000000001 -0.047 L 0.23500000000000001 -0.5640000000000001 Q 0.17300000000000001 -0.544 0.105 -0.544 L 0.085 -0.544 L 0.085 -0.591 L 0.105 -0.591 Q 0.229 -0.591 0.306 -0.648 Q 0.315 -0.655 0.328 -0.655 Q 0.34600000000000003 -0.655 0.35000000000000003 -0.6485 Q 0.354 -0.642 0.354 -0.623 Z"/></g><rect fill="rgb(0,0,0)" stroke="none" x="20.06292193746737" y="31.892613763157893" width="0.7129999999999999" height="0.039999"/><g transform="translate(20.06292193746737,32.8485642631579)"><path fill="rgb(0,0,0)" stroke="none" paint-order="stroke fill markers" d=" M 0.28 -0.376 Q 0.35100000000000003 -0.452 0.445 -0.452 Q 0.509 -0.452 0.5515 -0.4255 Q 0.594 -0.399 0.594 -0.336 Q 0.594 -0.281 0.532 -0.122 Q 0.512 -0.07200000000000001 0.512 -0.049 Q 0.512 -0.039 0.515 -0.034 Q 0.518 -0.029 0.521 -0.0285 Q 0.524 -0.028 0.529 -0.028 Q 0.538 -0.028 0.548 -0.032 Q 0.558 -0.036000000000000004 0.5735 -0.0465 Q 0.589 -0.057 0.6045 -0.0835 Q 0.62 -0.11 0.632 -0.149 Q 0.636 -0.162 0.655 -0.162 Q 0.679 -0.162 0.679 -0.148 Q 0.679 -0.138 0.669 -0.1145 Q 0.659 -0.091 0.641 -0.0625 Q 0.623 -0.034 0.5915 -0.013000000000000001 Q 0.56 0.008 0.523 0.008 Q 0.47800000000000004 0.008 0.444 -0.0165 Q 0.41000000000000003 -0.041 0.41000000000000003 -0.082 Q 0.41000000000000003 -0.099 0.424 -0.133 Q 0.487 -0.299 0.487 -0.357 Q 0.487 -0.41600000000000004 0.437 -0.41600000000000004 Q 0.384 -0.41600000000000004 0.334 -0.377 Q 0.312 -0.359 0.2925 -0.3325 Q 0.273 -0.306 0.272 -0.299 Q 0.271 -0.297 0.257 -0.241 Q 0.243 -0.185 0.241 -0.18 Q 0.227 -0.12 0.213 -0.068 Q 0.209 -0.053 0.20550000000000002 -0.043000000000000003 Q 0.202 -0.033 0.1945 -0.0195 Q 0.187 -0.006 0.17350000000000002 0.001 Q 0.16 0.008 0.14200000000000002 0.008 Q 0.12 0.008 0.1075 -0.0055 Q 0.095 -0.019 0.095 -0.036000000000000004 Q 0.095 -0.039 0.10300000000000001 -0.076 L 0.139 -0.216 Q 0.14400000000000002 -0.23800000000000002 0.161 -0.306 Q 0.17500000000000002 -0.362 0.17500000000000002 -0.379 Q 0.17500000000000002 -0.41600000000000004 0.152 -0.41600000000000004 Q 0.11 -0.41600000000000004 0.084 -0.316 Q 0.077 -0.28800000000000003 0.076 -0.28700000000000003 Q 0.07100000000000001 -0.28200000000000003 0.056 -0.28200000000000003 Q 0.032 -0.28200000000000003 0.032 -0.296 Q 0.032 -0.304 0.043000000000000003 -0.3365 Q 0.054 -0.369 0.07 -0.395 Q 0.105 -0.452 0.157 -0.452 Q 0.2 -0.452 0.23500000000000001 -0.432 Q 0.27 -0.41200000000000003 0.28 -0.376 Z"/></g></g><g transform="scale(19,19)"><g transform="translate(23.237185095362104,31.27557894736842)"><path fill="rgb(0,0,0)" stroke="none" paint-order="stroke fill markers" d=" M 0.517 -0.222 L 0.486 0 L 0.057 0 L 0.057 -0.018000000000000002 Q 0.057 -0.034 0.059000000000000004 -0.0385 Q 0.061 -0.043000000000000003 0.07 -0.052000000000000005 L 0.271 -0.257 Q 0.379 -0.367 0.379 -0.465 Q 0.379 -0.525 0.34400000000000003 -0.5665 Q 0.309 -0.608 0.247 -0.608 Q 0.186 -0.608 0.14400000000000002 -0.5730000000000001 Q 0.155 -0.5700000000000001 0.166 -0.5645 Q 0.177 -0.559 0.189 -0.542 Q 0.201 -0.525 0.201 -0.501 Q 0.201 -0.466 0.1785 -0.4475 Q 0.156 -0.429 0.129 -0.429 Q 0.10400000000000001 -0.429 0.0805 -0.4465 Q 0.057 -0.464 0.057 -0.503 Q 0.057 -0.5700000000000001 0.11850000000000001 -0.6125 Q 0.18 -0.655 0.272 -0.655 Q 0.379 -0.655 0.448 -0.603 Q 0.517 -0.551 0.517 -0.466 Q 0.517 -0.431 0.507 -0.404 Q 0.497 -0.377 0.46900000000000003 -0.34750000000000003 Q 0.441 -0.318 0.417 -0.299 Q 0.393 -0.28 0.339 -0.24 Q 0.292 -0.20600000000000002 0.195 -0.125 L 0.342 -0.125 Q 0.433 -0.125 0.444 -0.131 Q 0.457 -0.138 0.47000000000000003 -0.222 L 0.517 -0.222 Z"/></g><rect fill="rgb(0,0,0)" stroke="none" x="23.168185095362105" y="31.68208744736842" width="0.7129999999999999" height="0.039999"/><g transform="translate(23.168185095362105,32.638037947368424)"><path fill="rgb(0,0,0)" stroke="none" paint-order="stroke fill markers" d=" M 0.28 -0.376 Q 0.35100000000000003 -0.452 0.445 -0.452 Q 0.509 -0.452 0.5515 -0.4255 Q 0.594 -0.399 0.594 -0.336 Q 0.594 -0.281 0.532 -0.122 Q 0.512 -0.07200000000000001 0.512 -0.049 Q 0.512 -0.039 0.515 -0.034 Q 0.518 -0.029 0.521 -0.0285 Q 0.524 -0.028 0.529 -0.028 Q 0.538 -0.028 0.548 -0.032 Q 0.558 -0.036000000000000004 0.5735 -0.0465 Q 0.589 -0.057 0.6045 -0.0835 Q 0.62 -0.11 0.632 -0.149 Q 0.636 -0.162 0.655 -0.162 Q 0.679 -0.162 0.679 -0.148 Q 0.679 -0.138 0.669 -0.1145 Q 0.659 -0.091 0.641 -0.0625 Q 0.623 -0.034 0.5915 -0.013000000000000001 Q 0.56 0.008 0.523 0.008 Q 0.47800000000000004 0.008 0.444 -0.0165 Q 0.41000000000000003 -0.041 0.41000000000000003 -0.082 Q 0.41000000000000003 -0.099 0.424 -0.133 Q 0.487 -0.299 0.487 -0.357 Q 0.487 -0.41600000000000004 0.437 -0.41600000000000004 Q 0.384 -0.41600000000000004 0.334 -0.377 Q 0.312 -0.359 0.2925 -0.3325 Q 0.273 -0.306 0.272 -0.299 Q 0.271 -0.297 0.257 -0.241 Q 0.243 -0.185 0.241 -0.18 Q 0.227 -0.12 0.213 -0.068 Q 0.209 -0.053 0.20550000000000002 -0.043000000000000003 Q 0.202 -0.033 0.1945 -0.0195 Q 0.187 -0.006 0.17350000000000002 0.001 Q 0.16 0.008 0.14200000000000002 0.008 Q 0.12 0.008 0.1075 -0.0055 Q 0.095 -0.019 0.095 -0.036000000000000004 Q 0.095 -0.039 0.10300000000000001 -0.076 L 0.139 -0.216 Q 0.14400000000000002 -0.23800000000000002 0.161 -0.306 Q 0.17500000000000002 -0.362 0.17500000000000002 -0.379 Q 0.17500000000000002 -0.41600000000000004 0.152 -0.41600000000000004 Q 0.11 -0.41600000000000004 0.084 -0.316 Q 0.077 -0.28800000000000003 0.076 -0.28700000000000003 Q 0.07100000000000001 -0.28200000000000003 0.056 -0.28200000000000003 Q 0.032 -0.28200000000000003 0.032 -0.296 Q 0.032 -0.304 0.043000000000000003 -0.3365 Q 0.054 -0.369 0.07 -0.395 Q 0.105 -0.452 0.157 -0.452 Q 0.2 -0.452 0.23500000000000001 -0.432 Q 0.27 -0.41200000000000003 0.28 -0.376 Z"/></g></g><g transform="scale(19,19)"><g transform="translate(34.37871141115158,31.380842105263152)"><path fill="rgb(0,0,0)" stroke="none" paint-order="stroke fill markers" d=" M 0.28 -0.376 Q 0.35100000000000003 -0.452 0.445 -0.452 Q 0.509 -0.452 0.5515 -0.4255 Q 0.594 -0.399 0.594 -0.336 Q 0.594 -0.281 0.532 -0.122 Q 0.512 -0.07200000000000001 0.512 -0.049 Q 0.512 -0.039 0.515 -0.034 Q 0.518 -0.029 0.521 -0.0285 Q 0.524 -0.028 0.529 -0.028 Q 0.538 -0.028 0.548 -0.032 Q 0.558 -0.036000000000000004 0.5735 -0.0465 Q 0.589 -0.057 0.6045 -0.0835 Q 0.62 -0.11 0.632 -0.149 Q 0.636 -0.162 0.655 -0.162 Q 0.679 -0.162 0.679 -0.148 Q 0.679 -0.138 0.669 -0.1145 Q 0.659 -0.091 0.641 -0.0625 Q 0.623 -0.034 0.5915 -0.013000000000000001 Q 0.56 0.008 0.523 0.008 Q 0.47800000000000004 0.008 0.444 -0.0165 Q 0.41000000000000003 -0.041 0.41000000000000003 -0.082 Q 0.41000000000000003 -0.099 0.424 -0.133 Q 0.487 -0.299 0.487 -0.357 Q 0.487 -0.41600000000000004 0.437 -0.41600000000000004 Q 0.384 -0.41600000000000004 0.334 -0.377 Q 0.312 -0.359 0.2925 -0.3325 Q 0.273 -0.306 0.272 -0.299 Q 0.271 -0.297 0.257 -0.241 Q 0.243 -0.185 0.241 -0.18 Q 0.227 -0.12 0.213 -0.068 Q 0.209 -0.053 0.20550000000000002 -0.043000000000000003 Q 0.202 -0.033 0.1945 -0.0195 Q 0.187 -0.006 0.17350000000000002 0.001 Q 0.16 0.008 0.14200000000000002 0.008 Q 0.12 0.008 0.1075 -0.0055 Q 0.095 -0.019 0.095 -0.036000000000000004 Q 0.095 -0.039 0.10300000000000001 -0.076 L 0.139 -0.216 Q 0.14400000000000002 -0.23800000000000002 0.161 -0.306 Q 0.17500000000000002 -0.362 0.17500000000000002 -0.379 Q 0.17500000000000002 -0.41600000000000004 0.152 -0.41600000000000004 Q 0.11 -0.41600000000000004 0.084 -0.316 Q 0.077 -0.28800000000000003 0.076 -0.28700000000000003 Q 0.07100000000000001 -0.28200000000000003 0.056 -0.28200000000000003 Q 0.032 -0.28200000000000003 0.032 -0.296 Q 0.032 -0.304 0.043000000000000003 -0.3365 Q 0.054 -0.369 0.07 -0.395 Q 0.105 -0.452 0.157 -0.452 Q 0.2 -0.452 0.23500000000000001 -0.432 Q 0.27 -0.41200000000000003 0.28 -0.376 Z"/></g><g transform="translate(35.3139336333738,31.380842105263152)"><path fill="rgb(0,0,0)" stroke="none" paint-order="stroke fill markers" d=" M 0.752 -0.22 L 0.14100000000000001 -0.22 Q 0.096 -0.22 0.096 -0.251 Q 0.096 -0.281 0.14100000000000001 -0.281 L 0.752 -0.281 Q 0.797 -0.281 0.797 -0.25 Q 0.797 -0.22 0.752 -0.22 Z"/></g><g transform="translate(36.43015585559602,31.380842105263152)"><path fill="rgb(0,0,0)" stroke="none" paint-order="stroke fill markers" d=" M 0.354 -0.623 L 0.354 -0.047 L 0.494 -0.047 L 0.494 0 Q 0.45 -0.003 0.295 -0.003 Q 0.14 -0.003 0.096 0 L 0.096 -0.047 L 0.23500000000000001 -0.047 L 0.23500000000000001 -0.5640000000000001 Q 0.17300000000000001 -0.544 0.105 -0.544 L 0.085 -0.544 L 0.085 -0.591 L 0.105 -0.591 Q 0.229 -0.591 0.306 -0.648 Q 0.315 -0.655 0.328 -0.655 Q 0.34600000000000003 -0.655 0.35000000000000003 -0.6485 Q 0.354 -0.642 0.354 -0.623 Z"/></g><rect fill="rgb(0,0,0)" stroke="none" x="34.37871141115158" y="31.78735060526315" width="2.626444444444444" height="0.039999"/><g transform="translate(35.335433633373796,32.74330110526316)"><path fill="rgb(0,0,0)" stroke="none" paint-order="stroke fill markers" d=" M 0.28 -0.376 Q 0.35100000000000003 -0.452 0.445 -0.452 Q 0.509 -0.452 0.5515 -0.4255 Q 0.594 -0.399 0.594 -0.336 Q 0.594 -0.281 0.532 -0.122 Q 0.512 -0.07200000000000001 0.512 -0.049 Q 0.512 -0.039 0.515 -0.034 Q 0.518 -0.029 0.521 -0.0285 Q 0.524 -0.028 0.529 -0.028 Q 0.538 -0.028 0.548 -0.032 Q 0.558 -0.036000000000000004 0.5735 -0.0465 Q 0.589 -0.057 0.6045 -0.0835 Q 0.62 -0.11 0.632 -0.149 Q 0.636 -0.162 0.655 -0.162 Q 0.679 -0.162 0.679 -0.148 Q 0.679 -0.138 0.669 -0.1145 Q 0.659 -0.091 0.641 -0.0625 Q 0.623 -0.034 0.5915 -0.013000000000000001 Q 0.56 0.008 0.523 0.008 Q 0.47800000000000004 0.008 0.444 -0.0165 Q 0.41000000000000003 -0.041 0.41000000000000003 -0.082 Q 0.41000000000000003 -0.099 0.424 -0.133 Q 0.487 -0.299 0.487 -0.357 Q 0.487 -0.41600000000000004 0.437 -0.41600000000000004 Q 0.384 -0.41600000000000004 0.334 -0.377 Q 0.312 -0.359 0.2925 -0.3325 Q 0.273 -0.306 0.272 -0.299 Q 0.271 -0.297 0.257 -0.241 Q 0.243 -0.185 0.241 -0.18 Q 0.227 -0.12 0.213 -0.068 Q 0.209 -0.053 0.20550000000000002 -0.043000000000000003 Q 0.202 -0.033 0.1945 -0.0195 Q 0.187 -0.006 0.17350000000000002 0.001 Q 0.16 0.008 0.14200000000000002 0.008 Q 0.12 0.008 0.1075 -0.0055 Q 0.095 -0.019 0.095 -0.036000000000000004 Q 0.095 -0.039 0.10300000000000001 -0.076 L 0.139 -0.216 Q 0.14400000000000002 -0.23800000000000002 0.161 -0.306 Q 0.17500000000000002 -0.362 0.17500000000000002 -0.379 Q 0.17500000000000002 -0.41600000000000004 0.152 -0.41600000000000004 Q 0.11 -0.41600000000000004 0.084 -0.316 Q 0.077 -0.28800000000000003 0.076 -0.28700000000000003 Q 0.07100000000000001 -0.28200000000000003 0.056 -0.28200000000000003 Q 0.032 -0.28200000000000003 0.032 -0.296 Q 0.032 -0.304 0.043000000000000003 -0.3365 Q 0.054 -0.369 0.07 -0.395 Q 0.105 -0.452 0.157 -0.452 Q 0.2 -0.452 0.23500000000000001 -0.432 Q 0.27 -0.41200000000000003 0.28 -0.376 Z"/></g></g><g transform="scale(19,19)"><g transform="translate(26.289816674309474,31.27557894736842)"><path fill="rgb(0,0,0)" stroke="none" paint-order="stroke fill markers" d=" M 0.352 -0.352 Q 0.403 -0.341 0.4395 -0.3205 Q 0.47600000000000003 -0.3 0.4935 -0.2745 Q 0.511 -0.249 0.5185 -0.2265 Q 0.526 -0.20400000000000001 0.526 -0.18 Q 0.526 -0.10300000000000001 0.4625 -0.046 Q 0.399 0.011 0.274 0.011 Q 0.176 0.011 0.112 -0.0305 Q 0.048 -0.07200000000000001 0.048 -0.139 Q 0.048 -0.176 0.07 -0.1965 Q 0.092 -0.217 0.125 -0.217 Q 0.158 -0.217 0.1795 -0.196 Q 0.201 -0.17500000000000002 0.201 -0.14100000000000001 Q 0.201 -0.082 0.14300000000000002 -0.066 Q 0.197 -0.032 0.269 -0.032 Q 0.299 -0.032 0.32 -0.044 Q 0.341 -0.056 0.35100000000000003 -0.07050000000000001 Q 0.361 -0.085 0.3665 -0.109 Q 0.372 -0.133 0.3725 -0.1465 Q 0.373 -0.16 0.373 -0.181 Q 0.373 -0.203 0.3725 -0.2165 Q 0.372 -0.23 0.366 -0.2545 Q 0.36 -0.279 0.34950000000000003 -0.293 Q 0.339 -0.307 0.317 -0.3185 Q 0.295 -0.33 0.264 -0.33 L 0.22 -0.33 Q 0.209 -0.33 0.20450000000000002 -0.3305 Q 0.2 -0.331 0.196 -0.335 Q 0.192 -0.339 0.192 -0.34800000000000003 Q 0.192 -0.364 0.20400000000000001 -0.365 Q 0.215 -0.367 0.252 -0.369 Q 0.277 -0.37 0.296 -0.3805 Q 0.315 -0.391 0.3255 -0.40800000000000003 Q 0.336 -0.425 0.343 -0.441 Q 0.35000000000000003 -0.457 0.353 -0.47600000000000003 Q 0.356 -0.495 0.3565 -0.5035000000000001 Q 0.357 -0.512 0.357 -0.519 Q 0.357 -0.616 0.271 -0.616 Q 0.20600000000000002 -0.616 0.161 -0.58 Q 0.219 -0.5660000000000001 0.219 -0.51 Q 0.219 -0.481 0.2 -0.461 Q 0.181 -0.441 0.149 -0.441 Q 0.12 -0.441 0.1 -0.4605 Q 0.08 -0.48 0.08 -0.511 Q 0.08 -0.5720000000000001 0.1345 -0.6135 Q 0.189 -0.655 0.277 -0.655 Q 0.379 -0.655 0.4365 -0.6155 Q 0.494 -0.5760000000000001 0.494 -0.516 Q 0.494 -0.456 0.452 -0.41300000000000003 Q 0.41000000000000003 -0.37 0.352 -0.352 Z"/></g><rect fill="rgb(0,0,0)" stroke="none" x="26.220816674309475" y="31.68208744736842" width="0.7129999999999999" height="0.039999"/><g transform="translate(26.220816674309475,32.638037947368424)"><path fill="rgb(0,0,0)" stroke="none" paint-order="stroke fill markers" d=" M 0.28 -0.376 Q 0.35100000000000003 -0.452 0.445 -0.452 Q 0.509 -0.452 0.5515 -0.4255 Q 0.594 -0.399 0.594 -0.336 Q 0.594 -0.281 0.532 -0.122 Q 0.512 -0.07200000000000001 0.512 -0.049 Q 0.512 -0.039 0.515 -0.034 Q 0.518 -0.029 0.521 -0.0285 Q 0.524 -0.028 0.529 -0.028 Q 0.538 -0.028 0.548 -0.032 Q 0.558 -0.036000000000000004 0.5735 -0.0465 Q 0.589 -0.057 0.6045 -0.0835 Q 0.62 -0.11 0.632 -0.149 Q 0.636 -0.162 0.655 -0.162 Q 0.679 -0.162 0.679 -0.148 Q 0.679 -0.138 0.669 -0.1145 Q 0.659 -0.091 0.641 -0.0625 Q 0.623 -0.034 0.5915 -0.013000000000000001 Q 0.56 0.008 0.523 0.008 Q 0.47800000000000004 0.008 0.444 -0.0165 Q 0.41000000000000003 -0.041 0.41000000000000003 -0.082 Q 0.41000000000000003 -0.099 0.424 -0.133 Q 0.487 -0.299 0.487 -0.357 Q 0.487 -0.41600000000000004 0.437 -0.41600000000000004 Q 0.384 -0.41600000000000004 0.334 -0.377 Q 0.312 -0.359 0.2925 -0.3325 Q 0.273 -0.306 0.272 -0.299 Q 0.271 -0.297 0.257 -0.241 Q 0.243 -0.185 0.241 -0.18 Q 0.227 -0.12 0.213 -0.068 Q 0.209 -0.053 0.20550000000000002 -0.043000000000000003 Q 0.202 -0.033 0.1945 -0.0195 Q 0.187 -0.006 0.17350000000000002 0.001 Q 0.16 0.008 0.14200000000000002 0.008 Q 0.12 0.008 0.1075 -0.0055 Q 0.095 -0.019 0.095 -0.036000000000000004 Q 0.095 -0.039 0.10300000000000001 -0.076 L 0.139 -0.216 Q 0.14400000000000002 -0.23800000000000002 0.161 -0.306 Q 0.17500000000000002 -0.362 0.17500000000000002 -0.379 Q 0.17500000000000002 -0.41600000000000004 0.152 -0.41600000000000004 Q 0.11 -0.41600000000000004 0.084 -0.316 Q 0.077 -0.28800000000000003 0.076 -0.28700000000000003 Q 0.07100000000000001 -0.28200000000000003 0.056 -0.28200000000000003 Q 0.032 -0.28200000000000003 0.032 -0.296 Q 0.032 -0.304 0.043000000000000003 -0.3365 Q 0.054 -0.369 0.07 -0.395 Q 0.105 -0.452 0.157 -0.452 Q 0.2 -0.452 0.23500000000000001 -0.432 Q 0.27 -0.41200000000000003 0.28 -0.376 Z"/></g></g><g transform="scale(19,19)"><g transform="translate(14.736842105263158,4.802631578947368)"><path fill="rgb(0,0,0)" stroke="none" paint-order="stroke fill markers" d=" M 0.429 -0.397 L 0.375 -0.095 Q 0.35000000000000003 0.048 0.306 0.115 Q 0.298 0.128 0.28400000000000003 0.1445 Q 0.27 0.161 0.23750000000000002 0.1815 Q 0.20500000000000002 0.202 0.171 0.202 Q 0.128 0.202 0.095 0.181 Q 0.062 0.16 0.062 0.122 Q 0.062 0.093 0.083 0.07050000000000001 Q 0.10400000000000001 0.048 0.134 0.048 Q 0.154 0.048 0.1685 0.0605 Q 0.183 0.073 0.183 0.094 Q 0.183 0.115 0.1705 0.133 Q 0.158 0.151 0.139 0.16 Q 0.153 0.166 0.17300000000000001 0.166 Q 0.203 0.166 0.223 0.115 Q 0.225 0.109 0.229 0.09 Q 0.233 0.07100000000000001 0.23700000000000002 0.051000000000000004 Q 0.241 0.031 0.241 0.029 L 0.317 -0.397 L 0.225 -0.397 Q 0.192 -0.397 0.192 -0.41500000000000004 Q 0.192 -0.429 0.198 -0.4355 Q 0.20400000000000001 -0.442 0.21 -0.443 Q 0.216 -0.444 0.228 -0.444 L 0.326 -0.444 Q 0.338 -0.513 0.3425 -0.535 Q 0.34700000000000003 -0.557 0.355 -0.583 Q 0.363 -0.609 0.374 -0.627 Q 0.421 -0.7020000000000001 0.512 -0.7020000000000001 Q 0.56 -0.7020000000000001 0.593 -0.6805 Q 0.626 -0.659 0.626 -0.622 Q 0.626 -0.593 0.605 -0.5705 Q 0.584 -0.548 0.554 -0.548 Q 0.534 -0.548 0.5195 -0.5605 Q 0.505 -0.5730000000000001 0.505 -0.594 Q 0.505 -0.614 0.517 -0.632 Q 0.529 -0.65 0.547 -0.659 Q 0.53 -0.666 0.512 -0.666 Q 0.496 -0.666 0.483 -0.654 Q 0.47300000000000003 -0.645 0.47000000000000003 -0.625 L 0.437 -0.444 L 0.549 -0.444 Q 0.583 -0.444 0.583 -0.426 Q 0.583 -0.41200000000000003 0.577 -0.4055 Q 0.5710000000000001 -0.399 0.5650000000000001 -0.398 Q 0.559 -0.397 0.546 -0.397 L 0.429 -0.397 Z"/></g><g transform="translate(15.414842105263158,4.802631578947368)"><path fill="rgb(0,0,0)" stroke="none" paint-order="stroke fill markers" d=" M 0.379 0.225 L 0.38 0.228 Q 0.382 0.232 0.382 0.23500000000000001 Q 0.382 0.249 0.364 0.249 Q 0.34500000000000003 0.249 0.2885 0.1965 Q 0.232 0.14400000000000002 0.188 0.067 Q 0.108 -0.074 0.108 -0.251 Q 0.108 -0.518 0.28700000000000003 -0.6960000000000001 Q 0.34400000000000003 -0.75 0.364 -0.75 Q 0.382 -0.75 0.382 -0.736 Q 0.382 -0.731 0.366 -0.715 Q 0.20500000000000002 -0.553 0.20500000000000002 -0.25 Q 0.20500000000000002 -0.106 0.243 0.009000000000000001 Q 0.28500000000000003 0.138 0.379 0.225 Z"/></g><g transform="translate(15.861842105263158,4.802631578947368)"><path fill="rgb(0,0,0)" stroke="none" paint-order="stroke fill markers" d=" M 0.536 -0.401 Q 0.516 -0.41600000000000004 0.488 -0.41600000000000004 Q 0.461 -0.41600000000000004 0.4375 -0.392 Q 0.41400000000000003 -0.368 0.403 -0.325 Q 0.4 -0.316 0.385 -0.257 Q 0.37 -0.198 0.368 -0.189 Q 0.34600000000000003 -0.099 0.34600000000000003 -0.078 Q 0.34600000000000003 -0.028 0.402 -0.028 Q 0.44 -0.028 0.482 -0.0575 Q 0.524 -0.08700000000000001 0.544 -0.149 Q 0.548 -0.162 0.5670000000000001 -0.162 Q 0.591 -0.162 0.591 -0.148 Q 0.591 -0.134 0.578 -0.1095 Q 0.5650000000000001 -0.085 0.542 -0.058 Q 0.519 -0.031 0.48 -0.0115 Q 0.441 0.008 0.397 0.008 Q 0.295 0.008 0.259 -0.053 Q 0.215 0.008 0.152 0.008 Q 0.105 0.008 0.07150000000000001 -0.0165 Q 0.038 -0.041 0.038 -0.08 Q 0.038 -0.115 0.06 -0.1365 Q 0.082 -0.158 0.11 -0.158 Q 0.133 -0.158 0.1465 -0.14400000000000002 Q 0.16 -0.13 0.16 -0.112 Q 0.16 -0.091 0.1455 -0.07050000000000001 Q 0.131 -0.05 0.106 -0.043000000000000003 Q 0.126 -0.028 0.154 -0.028 Q 0.181 -0.028 0.20450000000000002 -0.051500000000000004 Q 0.228 -0.075 0.23900000000000002 -0.11900000000000001 L 0.273 -0.256 Q 0.296 -0.34800000000000003 0.296 -0.366 Q 0.296 -0.41600000000000004 0.24 -0.41600000000000004 Q 0.202 -0.41600000000000004 0.16 -0.3865 Q 0.11800000000000001 -0.357 0.098 -0.295 Q 0.094 -0.28200000000000003 0.075 -0.28200000000000003 Q 0.051000000000000004 -0.28200000000000003 0.051000000000000004 -0.296 Q 0.051000000000000004 -0.31 0.064 -0.3345 Q 0.077 -0.359 0.1 -0.386 Q 0.123 -0.41300000000000003 0.162 -0.4325 Q 0.201 -0.452 0.245 -0.452 Q 0.34700000000000003 -0.452 0.383 -0.391 Q 0.427 -0.452 0.49 -0.452 Q 0.537 -0.452 0.5705 -0.4275 Q 0.604 -0.403 0.604 -0.364 Q 0.604 -0.329 0.582 -0.3075 Q 0.56 -0.28600000000000003 0.532 -0.28600000000000003 Q 0.509 -0.28600000000000003 0.4955 -0.3 Q 0.482 -0.314 0.482 -0.332 Q 0.482 -0.353 0.4965 -0.3735 Q 0.511 -0.394 0.536 -0.401 Z"/></g><g transform="translate(16.520842105263156,4.802631578947368)"><path fill="rgb(0,0,0)" stroke="none" paint-order="stroke fill markers" d=" M 0.338 -0.25 Q 0.338 0.017 0.159 0.195 Q 0.10200000000000001 0.249 0.082 0.249 Q 0.064 0.249 0.064 0.23500000000000001 Q 0.064 0.23 0.08 0.214 Q 0.241 0.052000000000000005 0.241 -0.251 Q 0.241 -0.55 0.081 -0.713 Q 0.064 -0.729 0.064 -0.736 Q 0.064 -0.75 0.082 -0.75 Q 0.101 -0.75 0.1575 -0.6975 Q 0.214 -0.645 0.258 -0.5680000000000001 Q 0.338 -0.427 0.338 -0.25 Z"/></g></g><text fill="rgb(0,0,0)" stroke="none" font-family="geogebra-sans-serif, sans-serif" font-size="16px" font-style="normal" font-weight="bold" text-decoration="normal" x="844" y="562" text-anchor="start" dominant-baseline="alphabetic" fill-opacity="1">x</text><g transform="scale(19,19)"><g transform="translate(27.105263157894736,18.54790252631579)"><path fill="rgb(0,0,0)" stroke="none" paint-order="stroke fill markers" d=" M 0.429 -0.397 L 0.375 -0.095 Q 0.35000000000000003 0.048 0.306 0.115 Q 0.298 0.128 0.28400000000000003 0.1445 Q 0.27 0.161 0.23750000000000002 0.1815 Q 0.20500000000000002 0.202 0.171 0.202 Q 0.128 0.202 0.095 0.181 Q 0.062 0.16 0.062 0.122 Q 0.062 0.093 0.083 0.07050000000000001 Q 0.10400000000000001 0.048 0.134 0.048 Q 0.154 0.048 0.1685 0.0605 Q 0.183 0.073 0.183 0.094 Q 0.183 0.115 0.1705 0.133 Q 0.158 0.151 0.139 0.16 Q 0.153 0.166 0.17300000000000001 0.166 Q 0.203 0.166 0.223 0.115 Q 0.225 0.109 0.229 0.09 Q 0.233 0.07100000000000001 0.23700000000000002 0.051000000000000004 Q 0.241 0.031 0.241 0.029 L 0.317 -0.397 L 0.225 -0.397 Q 0.192 -0.397 0.192 -0.41500000000000004 Q 0.192 -0.429 0.198 -0.4355 Q 0.20400000000000001 -0.442 0.21 -0.443 Q 0.216 -0.444 0.228 -0.444 L 0.326 -0.444 Q 0.338 -0.513 0.3425 -0.535 Q 0.34700000000000003 -0.557 0.355 -0.583 Q 0.363 -0.609 0.374 -0.627 Q 0.421 -0.7020000000000001 0.512 -0.7020000000000001 Q 0.56 -0.7020000000000001 0.593 -0.6805 Q 0.626 -0.659 0.626 -0.622 Q 0.626 -0.593 0.605 -0.5705 Q 0.584 -0.548 0.554 -0.548 Q 0.534 -0.548 0.5195 -0.5605 Q 0.505 -0.5730000000000001 0.505 -0.594 Q 0.505 -0.614 0.517 -0.632 Q 0.529 -0.65 0.547 -0.659 Q 0.53 -0.666 0.512 -0.666 Q 0.496 -0.666 0.483 -0.654 Q 0.47300000000000003 -0.645 0.47000000000000003 -0.625 L 0.437 -0.444 L 0.549 -0.444 Q 0.583 -0.444 0.583 -0.426 Q 0.583 -0.41200000000000003 0.577 -0.4055 Q 0.5710000000000001 -0.399 0.5650000000000001 -0.398 Q 0.559 -0.397 0.546 -0.397 L 0.429 -0.397 Z"/></g><g transform="translate(27.783263157894737,18.54790252631579)"><path fill="rgb(0,0,0)" stroke="none" paint-order="stroke fill markers" d=" M 0.379 0.225 L 0.38 0.228 Q 0.382 0.232 0.382 0.23500000000000001 Q 0.382 0.249 0.364 0.249 Q 0.34500000000000003 0.249 0.2885 0.1965 Q 0.232 0.14400000000000002 0.188 0.067 Q 0.108 -0.074 0.108 -0.251 Q 0.108 -0.518 0.28700000000000003 -0.6960000000000001 Q 0.34400000000000003 -0.75 0.364 -0.75 Q 0.382 -0.75 0.382 -0.736 Q 0.382 -0.731 0.366 -0.715 Q 0.20500000000000002 -0.553 0.20500000000000002 -0.25 Q 0.20500000000000002 -0.106 0.243 0.009000000000000001 Q 0.28500000000000003 0.138 0.379 0.225 Z"/></g><g transform="translate(28.230263157894736,18.54790252631579)"><path fill="rgb(0,0,0)" stroke="none" paint-order="stroke fill markers" d=" M 0.536 -0.401 Q 0.516 -0.41600000000000004 0.488 -0.41600000000000004 Q 0.461 -0.41600000000000004 0.4375 -0.392 Q 0.41400000000000003 -0.368 0.403 -0.325 Q 0.4 -0.316 0.385 -0.257 Q 0.37 -0.198 0.368 -0.189 Q 0.34600000000000003 -0.099 0.34600000000000003 -0.078 Q 0.34600000000000003 -0.028 0.402 -0.028 Q 0.44 -0.028 0.482 -0.0575 Q 0.524 -0.08700000000000001 0.544 -0.149 Q 0.548 -0.162 0.5670000000000001 -0.162 Q 0.591 -0.162 0.591 -0.148 Q 0.591 -0.134 0.578 -0.1095 Q 0.5650000000000001 -0.085 0.542 -0.058 Q 0.519 -0.031 0.48 -0.0115 Q 0.441 0.008 0.397 0.008 Q 0.295 0.008 0.259 -0.053 Q 0.215 0.008 0.152 0.008 Q 0.105 0.008 0.07150000000000001 -0.0165 Q 0.038 -0.041 0.038 -0.08 Q 0.038 -0.115 0.06 -0.1365 Q 0.082 -0.158 0.11 -0.158 Q 0.133 -0.158 0.1465 -0.14400000000000002 Q 0.16 -0.13 0.16 -0.112 Q 0.16 -0.091 0.1455 -0.07050000000000001 Q 0.131 -0.05 0.106 -0.043000000000000003 Q 0.126 -0.028 0.154 -0.028 Q 0.181 -0.028 0.20450000000000002 -0.051500000000000004 Q 0.228 -0.075 0.23900000000000002 -0.11900000000000001 L 0.273 -0.256 Q 0.296 -0.34800000000000003 0.296 -0.366 Q 0.296 -0.41600000000000004 0.24 -0.41600000000000004 Q 0.202 -0.41600000000000004 0.16 -0.3865 Q 0.11800000000000001 -0.357 0.098 -0.295 Q 0.094 -0.28200000000000003 0.075 -0.28200000000000003 Q 0.051000000000000004 -0.28200000000000003 0.051000000000000004 -0.296 Q 0.051000000000000004 -0.31 0.064 -0.3345 Q 0.077 -0.359 0.1 -0.386 Q 0.123 -0.41300000000000003 0.162 -0.4325 Q 0.201 -0.452 0.245 -0.452 Q 0.34700000000000003 -0.452 0.383 -0.391 Q 0.427 -0.452 0.49 -0.452 Q 0.537 -0.452 0.5705 -0.4275 Q 0.604 -0.403 0.604 -0.364 Q 0.604 -0.329 0.582 -0.3075 Q 0.56 -0.28600000000000003 0.532 -0.28600000000000003 Q 0.509 -0.28600000000000003 0.4955 -0.3 Q 0.482 -0.314 0.482 -0.332 Q 0.482 -0.353 0.4965 -0.3735 Q 0.511 -0.394 0.536 -0.401 Z"/></g><g transform="translate(28.889263157894735,18.54790252631579)"><path fill="rgb(0,0,0)" stroke="none" paint-order="stroke fill markers" d=" M 0.338 -0.25 Q 0.338 0.017 0.159 0.195 Q 0.10200000000000001 0.249 0.082 0.249 Q 0.064 0.249 0.064 0.23500000000000001 Q 0.064 0.23 0.08 0.214 Q 0.241 0.052000000000000005 0.241 -0.251 Q 0.241 -0.55 0.081 -0.713 Q 0.064 -0.729 0.064 -0.736 Q 0.064 -0.75 0.082 -0.75 Q 0.101 -0.75 0.1575 -0.6975 Q 0.214 -0.645 0.258 -0.5680000000000001 Q 0.338 -0.427 0.338 -0.25 Z"/></g><g transform="translate(29.614040935672513,18.54790252631579)"><path fill="rgb(0,0,0)" stroke="none" paint-order="stroke fill markers" d=" M 0.788 -0.332 L 0.105 -0.332 Q 0.064 -0.332 0.064 -0.362 Q 0.064 -0.393 0.11 -0.393 L 0.783 -0.393 Q 0.8290000000000001 -0.393 0.8290000000000001 -0.362 Q 0.8290000000000001 -0.332 0.788 -0.332 M 0.783 -0.108 L 0.11 -0.108 Q 0.064 -0.108 0.064 -0.139 Q 0.064 -0.169 0.105 -0.169 L 0.788 -0.169 Q 0.8290000000000001 -0.169 0.8290000000000001 -0.139 Q 0.8290000000000001 -0.108 0.783 -0.108 Z"/></g><g transform="translate(30.78581871345029,18.54790252631579)"><path fill="rgb(0,0,0)" stroke="none" paint-order="stroke fill markers" d=" M 0.536 -0.401 Q 0.516 -0.41600000000000004 0.488 -0.41600000000000004 Q 0.461 -0.41600000000000004 0.4375 -0.392 Q 0.41400000000000003 -0.368 0.403 -0.325 Q 0.4 -0.316 0.385 -0.257 Q 0.37 -0.198 0.368 -0.189 Q 0.34600000000000003 -0.099 0.34600000000000003 -0.078 Q 0.34600000000000003 -0.028 0.402 -0.028 Q 0.44 -0.028 0.482 -0.0575 Q 0.524 -0.08700000000000001 0.544 -0.149 Q 0.548 -0.162 0.5670000000000001 -0.162 Q 0.591 -0.162 0.591 -0.148 Q 0.591 -0.134 0.578 -0.1095 Q 0.5650000000000001 -0.085 0.542 -0.058 Q 0.519 -0.031 0.48 -0.0115 Q 0.441 0.008 0.397 0.008 Q 0.295 0.008 0.259 -0.053 Q 0.215 0.008 0.152 0.008 Q 0.105 0.008 0.07150000000000001 -0.0165 Q 0.038 -0.041 0.038 -0.08 Q 0.038 -0.115 0.06 -0.1365 Q 0.082 -0.158 0.11 -0.158 Q 0.133 -0.158 0.1465 -0.14400000000000002 Q 0.16 -0.13 0.16 -0.112 Q 0.16 -0.091 0.1455 -0.07050000000000001 Q 0.131 -0.05 0.106 -0.043000000000000003 Q 0.126 -0.028 0.154 -0.028 Q 0.181 -0.028 0.20450000000000002 -0.051500000000000004 Q 0.228 -0.075 0.23900000000000002 -0.11900000000000001 L 0.273 -0.256 Q 0.296 -0.34800000000000003 0.296 -0.366 Q 0.296 -0.41600000000000004 0.24 -0.41600000000000004 Q 0.202 -0.41600000000000004 0.16 -0.3865 Q 0.11800000000000001 -0.357 0.098 -0.295 Q 0.094 -0.28200000000000003 0.075 -0.28200000000000003 Q 0.051000000000000004 -0.28200000000000003 0.051000000000000004 -0.296 Q 0.051000000000000004 -0.31 0.064 -0.3345 Q 0.077 -0.359 0.1 -0.386 Q 0.123 -0.41300000000000003 0.162 -0.4325 Q 0.201 -0.452 0.245 -0.452 Q 0.34700000000000003 -0.452 0.383 -0.391 Q 0.427 -0.452 0.49 -0.452 Q 0.537 -0.452 0.5705 -0.4275 Q 0.604 -0.403 0.604 -0.364 Q 0.604 -0.329 0.582 -0.3075 Q 0.56 -0.28600000000000003 0.532 -0.28600000000000003 Q 0.509 -0.28600000000000003 0.4955 -0.3 Q 0.482 -0.314 0.482 -0.332 Q 0.482 -0.353 0.4965 -0.3735 Q 0.511 -0.394 0.536 -0.401 Z"/></g><g transform="translate(31.44481871345029,18.135010526315792) scale(0.7,0.7)"><path fill="rgb(0,0,0)" stroke="none" paint-order="stroke fill markers" d=" M 0.517 -0.222 L 0.486 0 L 0.057 0 L 0.057 -0.018000000000000002 Q 0.057 -0.034 0.059000000000000004 -0.0385 Q 0.061 -0.043000000000000003 0.07 -0.052000000000000005 L 0.271 -0.257 Q 0.379 -0.367 0.379 -0.465 Q 0.379 -0.525 0.34400000000000003 -0.5665 Q 0.309 -0.608 0.247 -0.608 Q 0.186 -0.608 0.14400000000000002 -0.5730000000000001 Q 0.155 -0.5700000000000001 0.166 -0.5645 Q 0.177 -0.559 0.189 -0.542 Q 0.201 -0.525 0.201 -0.501 Q 0.201 -0.466 0.1785 -0.4475 Q 0.156 -0.429 0.129 -0.429 Q 0.10400000000000001 -0.429 0.0805 -0.4465 Q 0.057 -0.464 0.057 -0.503 Q 0.057 -0.5700000000000001 0.11850000000000001 -0.6125 Q 0.18 -0.655 0.272 -0.655 Q 0.379 -0.655 0.448 -0.603 Q 0.517 -0.551 0.517 -0.466 Q 0.517 -0.431 0.507 -0.404 Q 0.497 -0.377 0.46900000000000003 -0.34750000000000003 Q 0.441 -0.318 0.417 -0.299 Q 0.393 -0.28 0.339 -0.24 Q 0.292 -0.20600000000000002 0.195 -0.125 L 0.342 -0.125 Q 0.433 -0.125 0.444 -0.131 Q 0.457 -0.138 0.47000000000000003 -0.222 L 0.517 -0.222 Z"/></g></g></g></g></svg>