<svg version="1.1" xmlns="http://www.w3.org/2000/svg" xmlns:xlink="http://www.w3.org/1999/xlink" width="1108" height="692"><defs><clipPath id="HbwHQKoxdOuK"><path fill="none" stroke="none" d=" M 0 0 L 1108 0 L 1108 692 L 0 692 L 0 0 Z"/></clipPath></defs><g transform="scale(1,1)" clip-path="url(#HbwHQKoxdOuK)"><g><rect fill="rgb(255,255,255)" stroke="none" x="0" y="0" width="1108" height="692" fill-opacity="0.6"/><path fill="none" stroke="rgb(192,192,192)" paint-order="fill stroke markers" d=" M 766 341.99999999999994 C 766 452.4569499661585 676.4569499661587 541.9999999999998 566.0000000000001 541.9999999999998 C 455.54305003384144 541.9999999999998 366.0000000000001 452.4569499661585 366.0000000000001 341.99999999999994 C 366.0000000000001 231.54305003384133 455.54305003384144 142.00000000000006 566.0000000000001 142.00000000000006 C 676.4569499661587 142.00000000000006 766 231.54305003384133 766 341.99999999999994 Z" stroke-opacity="0.6980392156862745" stroke-linecap="round" stroke-linejoin="round" stroke-miterlimit="10" stroke-width="2.5"/><path fill="none" stroke="rgb(255,0,0)" paint-order="fill stroke markers" d=" M 766.0000000000001 341.99999999999994 C 766.0000000000001 274.56221837123104 732.0143344597275 211.66544915141154 675.6052514621747 174.70777408404936" stroke-opacity="0.6980392156862745" stroke-linecap="round" stroke-linejoin="round" stroke-miterlimit="10" stroke-width="2.5"/><path fill="rgb(255,0,0)" stroke="none" paint-order="stroke fill markers" d=" M 596.0000000000001 341.99999999999994 C 596.0000000000001 331.8843327556846 590.9021501689592 322.44981737271166 582.4407877193263 316.90616611260737 L 566.0000000000001 341.99999999999994 Z" fill-opacity="0.09803921568627451"/><path fill="none" stroke="rgb(255,0,0)" paint-order="fill stroke markers" d=" M 596.0000000000001 341.99999999999994 C 596.0000000000001 331.8843327556846 590.9021501689592 322.44981737271166 582.4407877193263 316.90616611260737 L 566.0000000000001 341.99999999999994 Z" stroke-opacity="0.6980392156862745" stroke-linecap="round" stroke-linejoin="round" stroke-miterlimit="10" stroke-width="2.5"/><path fill="none" stroke="rgb(160,160,160)" paint-order="fill stroke markers" d=" M 216.00000000000017 341.99999999999994 L 916 341.99999999999994" stroke-opacity="0.6980392156862745" stroke-linecap="round" stroke-linejoin="round" stroke-miterlimit="10" stroke-width="2.5"/><path fill="none" stroke="rgb(160,160,160)" paint-order="fill stroke markers" d=" M 566.0000000000001 42.000000000000114 L 566.0000000000001 591.9999999999998" stroke-opacity="0.6980392156862745" stroke-linecap="round" stroke-linejoin="round" stroke-miterlimit="10" stroke-width="2.5"/><path fill="none" stroke="rgb(255,0,0)" paint-order="fill stroke markers" d=" M 566.0000000000001 341.99999999999994 L 675.6052514621747 174.70777408404933" stroke-opacity="0.6980392156862745" stroke-linecap="round" stroke-linejoin="round" stroke-miterlimit="10" stroke-width="2.5"/><path fill="none" stroke="rgb(255,0,0)" paint-order="fill stroke markers" d=" M 566.0000000000001 341.99999999999994 L 766.0000000000001 341.99999999999994" stroke-opacity="0.6980392156862745" stroke-linecap="round" stroke-linejoin="round" stroke-miterlimit="10" stroke-width="2.5"/><g transform="scale(19,19)"><g transform="translate(31.473684210526315,17.27294736842105)"><path fill="rgb(0,0,0)" stroke="none" paint-order="stroke fill markers" d=" M 0.354 -0.623 L 0.354 -0.047 L 0.494 -0.047 L 0.494 0 Q 0.45 -0.003 0.295 -0.003 Q 0.14 -0.003 0.096 0 L 0.096 -0.047 L 0.23500000000000001 -0.047 L 0.23500000000000001 -0.5640000000000001 Q 0.17300000000000001 -0.544 0.105 -0.544 L 0.085 -0.544 L 0.085 -0.591 L 0.105 -0.591 Q 0.229 -0.591 0.306 -0.648 Q 0.315 -0.655 0.328 -0.655 Q 0.34600000000000003 -0.655 0.35000000000000003 -0.6485 Q 0.354 -0.642 0.354 -0.623 Z"/></g><g transform="translate(32.04868421052632,17.27294736842105)"><path fill="rgb(0,0,0)" stroke="none" paint-order="stroke fill markers" d=" M 0.444 -0.402 Q 0.43 -0.41600000000000004 0.405 -0.41600000000000004 Q 0.341 -0.41600000000000004 0.295 -0.358 Q 0.28300000000000003 -0.34400000000000003 0.278 -0.326 Q 0.277 -0.322 0.243 -0.185 Q 0.209 -0.048 0.20800000000000002 -0.045 Q 0.201 -0.017 0.181 -0.0045000000000000005 Q 0.161 0.008 0.14200000000000002 0.008 Q 0.12 0.008 0.1075 -0.0055 Q 0.095 -0.019 0.095 -0.036000000000000004 L 0.113 -0.114 Q 0.124 -0.155 0.133 -0.196 Q 0.136 -0.20800000000000002 0.147 -0.2515 Q 0.158 -0.295 0.161 -0.304 Q 0.17500000000000002 -0.364 0.17500000000000002 -0.38 Q 0.17500000000000002 -0.41600000000000004 0.152 -0.41600000000000004 Q 0.109 -0.41600000000000004 0.084 -0.316 Q 0.077 -0.28800000000000003 0.076 -0.28700000000000003 Q 0.07100000000000001 -0.28200000000000003 0.056 -0.28200000000000003 Q 0.032 -0.28200000000000003 0.032 -0.296 Q 0.032 -0.304 0.043000000000000003 -0.337 Q 0.054 -0.37 0.07 -0.395 Q 0.105 -0.452 0.157 -0.452 Q 0.19 -0.452 0.224 -0.4375 Q 0.258 -0.423 0.274 -0.392 Q 0.33 -0.452 0.40700000000000003 -0.452 Q 0.452 -0.452 0.47850000000000004 -0.4265 Q 0.505 -0.401 0.505 -0.365 Q 0.505 -0.329 0.483 -0.3075 Q 0.461 -0.28600000000000003 0.433 -0.28600000000000003 Q 0.41000000000000003 -0.28600000000000003 0.3965 -0.3 Q 0.383 -0.314 0.383 -0.332 Q 0.383 -0.341 0.386 -0.3525 Q 0.389 -0.364 0.404 -0.3805 Q 0.419 -0.397 0.444 -0.402 Z"/></g><g transform="translate(32.60968421052632,17.27294736842105)"><path fill="rgb(0,0,0)" stroke="none" paint-order="stroke fill markers" d=" M 0.515 -0.317 L 0.492 -0.228 Q 0.487 -0.20600000000000002 0.47000000000000003 -0.138 Q 0.456 -0.082 0.456 -0.065 Q 0.456 -0.028 0.47900000000000004 -0.028 Q 0.522 -0.028 0.547 -0.128 Q 0.554 -0.156 0.555 -0.157 Q 0.56 -0.162 0.5750000000000001 -0.162 Q 0.599 -0.162 0.599 -0.148 Q 0.599 -0.14 0.588 -0.1075 Q 0.577 -0.075 0.561 -0.049 Q 0.528 0.008 0.47400000000000003 0.008 Q 0.397 0.008 0.359 -0.046 Q 0.301 0.008 0.22 0.008 Q 0.148 0.008 0.0965 -0.032 Q 0.045 -0.07200000000000001 0.045 -0.157 Q 0.045 -0.268 0.1245 -0.36 Q 0.20400000000000001 -0.452 0.327 -0.452 Q 0.394 -0.452 0.433 -0.41000000000000003 Q 0.453 -0.435 0.484 -0.435 Q 0.502 -0.435 0.5165 -0.424 Q 0.531 -0.41300000000000003 0.531 -0.391 Q 0.531 -0.384 0.515 -0.317 M 0.34900000000000003 -0.093 L 0.41000000000000003 -0.34400000000000003 L 0.41200000000000003 -0.358 Q 0.41200000000000003 -0.372 0.3895 -0.394 Q 0.367 -0.41600000000000004 0.329 -0.41600000000000004 Q 0.25 -0.41600000000000004 0.20800000000000002 -0.318 Q 0.194 -0.28400000000000003 0.176 -0.212 Q 0.158 -0.14 0.158 -0.10400000000000001 Q 0.158 -0.028 0.225 -0.028 Q 0.259 -0.028 0.292 -0.0465 Q 0.325 -0.065 0.34900000000000003 -0.093 Z"/></g><g transform="translate(33.24268421052632,17.27294736842105)"><path fill="rgb(0,0,0)" stroke="none" paint-order="stroke fill markers" d=" M 0.6 -0.659 L 0.462 -0.108 Q 0.456 -0.08700000000000001 0.456 -0.065 Q 0.456 -0.028 0.47900000000000004 -0.028 Q 0.522 -0.028 0.547 -0.128 Q 0.554 -0.156 0.555 -0.157 Q 0.56 -0.162 0.5750000000000001 -0.162 Q 0.599 -0.162 0.599 -0.148 Q 0.599 -0.14 0.588 -0.1075 Q 0.577 -0.075 0.561 -0.049 Q 0.528 0.008 0.47400000000000003 0.008 Q 0.397 0.008 0.359 -0.046 Q 0.301 0.008 0.22 0.008 Q 0.148 0.008 0.0965 -0.032 Q 0.045 -0.07200000000000001 0.045 -0.157 Q 0.045 -0.268 0.1245 -0.36 Q 0.20400000000000001 -0.452 0.327 -0.452 Q 0.389 -0.452 0.428 -0.41600000000000004 L 0.482 -0.637 Q 0.46900000000000003 -0.639 0.44 -0.639 Q 0.41400000000000003 -0.639 0.41400000000000003 -0.657 Q 0.41400000000000003 -0.67 0.42 -0.677 Q 0.426 -0.684 0.431 -0.685 Q 0.436 -0.686 0.446 -0.687 L 0.5750000000000001 -0.6930000000000001 Q 0.577 -0.6940000000000001 0.582 -0.6940000000000001 Q 0.604 -0.6940000000000001 0.604 -0.676 Q 0.604 -0.673 0.6 -0.659 M 0.34900000000000003 -0.093 L 0.41000000000000003 -0.34400000000000003 L 0.41200000000000003 -0.358 Q 0.41200000000000003 -0.372 0.3895 -0.394 Q 0.367 -0.41600000000000004 0.329 -0.41600000000000004 Q 0.25 -0.41600000000000004 0.20800000000000002 -0.318 Q 0.194 -0.28400000000000003 0.176 -0.212 Q 0.158 -0.14 0.158 -0.10400000000000001 Q 0.158 -0.028 0.225 -0.028 Q 0.259 -0.028 0.292 -0.0465 Q 0.325 -0.065 0.34900000000000003 -0.093 Z"/></g></g><g transform="scale(19,19)"><g transform="translate(32.36842105263158,12.970315789473686)"><path fill="rgb(0,0,0)" stroke="none" paint-order="stroke fill markers" d=" M 0.444 -0.402 Q 0.43 -0.41600000000000004 0.405 -0.41600000000000004 Q 0.341 -0.41600000000000004 0.295 -0.358 Q 0.28300000000000003 -0.34400000000000003 0.278 -0.326 Q 0.277 -0.322 0.243 -0.185 Q 0.209 -0.048 0.20800000000000002 -0.045 Q 0.201 -0.017 0.181 -0.0045000000000000005 Q 0.161 0.008 0.14200000000000002 0.008 Q 0.12 0.008 0.1075 -0.0055 Q 0.095 -0.019 0.095 -0.036000000000000004 L 0.113 -0.114 Q 0.124 -0.155 0.133 -0.196 Q 0.136 -0.20800000000000002 0.147 -0.2515 Q 0.158 -0.295 0.161 -0.304 Q 0.17500000000000002 -0.364 0.17500000000000002 -0.38 Q 0.17500000000000002 -0.41600000000000004 0.152 -0.41600000000000004 Q 0.109 -0.41600000000000004 0.084 -0.316 Q 0.077 -0.28800000000000003 0.076 -0.28700000000000003 Q 0.07100000000000001 -0.28200000000000003 0.056 -0.28200000000000003 Q 0.032 -0.28200000000000003 0.032 -0.296 Q 0.032 -0.304 0.043000000000000003 -0.337 Q 0.054 -0.37 0.07 -0.395 Q 0.105 -0.452 0.157 -0.452 Q 0.19 -0.452 0.224 -0.4375 Q 0.258 -0.423 0.274 -0.392 Q 0.33 -0.452 0.40700000000000003 -0.452 Q 0.452 -0.452 0.47850000000000004 -0.4265 Q 0.505 -0.401 0.505 -0.365 Q 0.505 -0.329 0.483 -0.3075 Q 0.461 -0.28600000000000003 0.433 -0.28600000000000003 Q 0.41000000000000003 -0.28600000000000003 0.3965 -0.3 Q 0.383 -0.314 0.383 -0.332 Q 0.383 -0.341 0.386 -0.3525 Q 0.389 -0.364 0.404 -0.3805 Q 0.419 -0.397 0.444 -0.402 Z"/></g></g><g transform="scale(19,19)"><g transform="translate(35.94736842105263,18.970315789473684)"><path fill="rgb(0,0,0)" stroke="none" paint-order="stroke fill markers" d=" M 0.444 -0.402 Q 0.43 -0.41600000000000004 0.405 -0.41600000000000004 Q 0.341 -0.41600000000000004 0.295 -0.358 Q 0.28300000000000003 -0.34400000000000003 0.278 -0.326 Q 0.277 -0.322 0.243 -0.185 Q 0.209 -0.048 0.20800000000000002 -0.045 Q 0.201 -0.017 0.181 -0.0045000000000000005 Q 0.161 0.008 0.14200000000000002 0.008 Q 0.12 0.008 0.1075 -0.0055 Q 0.095 -0.019 0.095 -0.036000000000000004 L 0.113 -0.114 Q 0.124 -0.155 0.133 -0.196 Q 0.136 -0.20800000000000002 0.147 -0.2515 Q 0.158 -0.295 0.161 -0.304 Q 0.17500000000000002 -0.364 0.17500000000000002 -0.38 Q 0.17500000000000002 -0.41600000000000004 0.152 -0.41600000000000004 Q 0.109 -0.41600000000000004 0.084 -0.316 Q 0.077 -0.28800000000000003 0.076 -0.28700000000000003 Q 0.07100000000000001 -0.28200000000000003 0.056 -0.28200000000000003 Q 0.032 -0.28200000000000003 0.032 -0.296 Q 0.032 -0.304 0.043000000000000003 -0.337 Q 0.054 -0.37 0.07 -0.395 Q 0.105 -0.452 0.157 -0.452 Q 0.19 -0.452 0.224 -0.4375 Q 0.258 -0.423 0.274 -0.392 Q 0.33 -0.452 0.40700000000000003 -0.452 Q 0.452 -0.452 0.47850000000000004 -0.4265 Q 0.505 -0.401 0.505 -0.365 Q 0.505 -0.329 0.483 -0.3075 Q 0.461 -0.28600000000000003 0.433 -0.28600000000000003 Q 0.41000000000000003 -0.28600000000000003 0.3965 -0.3 Q 0.383 -0.314 0.383 -0.332 Q 0.383 -0.341 0.386 -0.3525 Q 0.389 -0.364 0.404 -0.3805 Q 0.419 -0.397 0.444 -0.402 Z"/></g></g><g transform="scale(19,19)"><g transform="translate(39.36842105263158,13.075578947368422)"><path fill="rgb(0,0,0)" stroke="none" paint-order="stroke fill markers" d=" M 0.444 -0.402 Q 0.43 -0.41600000000000004 0.405 -0.41600000000000004 Q 0.341 -0.41600000000000004 0.295 -0.358 Q 0.28300000000000003 -0.34400000000000003 0.278 -0.326 Q 0.277 -0.322 0.243 -0.185 Q 0.209 -0.048 0.20800000000000002 -0.045 Q 0.201 -0.017 0.181 -0.0045000000000000005 Q 0.161 0.008 0.14200000000000002 0.008 Q 0.12 0.008 0.1075 -0.0055 Q 0.095 -0.019 0.095 -0.036000000000000004 L 0.113 -0.114 Q 0.124 -0.155 0.133 -0.196 Q 0.136 -0.20800000000000002 0.147 -0.2515 Q 0.158 -0.295 0.161 -0.304 Q 0.17500000000000002 -0.364 0.17500000000000002 -0.38 Q 0.17500000000000002 -0.41600000000000004 0.152 -0.41600000000000004 Q 0.109 -0.41600000000000004 0.084 -0.316 Q 0.077 -0.28800000000000003 0.076 -0.28700000000000003 Q 0.07100000000000001 -0.28200000000000003 0.056 -0.28200000000000003 Q 0.032 -0.28200000000000003 0.032 -0.296 Q 0.032 -0.304 0.043000000000000003 -0.337 Q 0.054 -0.37 0.07 -0.395 Q 0.105 -0.452 0.157 -0.452 Q 0.19 -0.452 0.224 -0.4375 Q 0.258 -0.423 0.274 -0.392 Q 0.33 -0.452 0.40700000000000003 -0.452 Q 0.452 -0.452 0.47850000000000004 -0.4265 Q 0.505 -0.401 0.505 -0.365 Q 0.505 -0.329 0.483 -0.3075 Q 0.461 -0.28600000000000003 0.433 -0.28600000000000003 Q 0.41000000000000003 -0.28600000000000003 0.3965 -0.3 Q 0.383 -0.314 0.383 -0.332 Q 0.383 -0.341 0.386 -0.3525 Q 0.389 -0.364 0.404 -0.3805 Q 0.419 -0.397 0.444 -0.402 Z"/></g></g></g></g></svg>